<svg viewBox="0 0 540 540" width="32" height="32" clip-rule="evenodd" fill-rule="evenodd" image-rendering="optimizequality" shape-rendering="geometricprecision" text-rendering="geometricprecision" version="1.1" xmlns="http://www.w3.org/2000/svg" xmlns:xlink="http://www.w3.org/1999/xlink">
    <style>
        :root, .palette0 {color: currentColor;
            --color0: #f5f5f5;
            --color1: #f8f8f8;
            --color2: #f6f6f6;
            --color3: #f7f7f7;
            --color4: #f9f9f9;
        }
    </style>
    <path opacity="1" fill="var(--color0, #f5f5f5)" d="M92.5 65.5c3.4278 0.0465 6.4278 1.2132 9 3.5 56.528 56.194 112.694 112.694 168.5 169.5 56.833-56.833 113.667-113.667 170.5-170.5 3-2 6-2 9 0 7.5 7.5 15 15 22.5 22.5 2 3 2 6 0 9-56.833 56.833-113.667 113.667-170.5 170.5 56.473 55.472 112.639 111.306 168.5 167.5 4.103 4.068 4.437 8.401 1 13-6.833 6.833-13.667 13.667-20.5 20.5-4.242 2.202-8.242 1.869-12-1-56.167-56.167-112.333-112.333-168.5-168.5C213.167 358.333 156.333 415.167 99.5 472c-2.866 1.457-5.866 1.79-9 1-7.5-7.5-15-15-22.5-22.5-2-3.333-2-6.667 0-10 56.833-56.833 113.667-113.667 170.5-170.5C182 213.5 125.5 157 69 100.5c-2.8688-3.7584-3.2021-7.7584-1-12 7.7608-8.2659 15.9274-15.9326 24.5-23z" />
</svg>