<svg viewBox="0 0 540 540" width="32" height="32" clip-rule="evenodd" fill-rule="evenodd" image-rendering="optimizequality" shape-rendering="geometricprecision" text-rendering="geometricprecision" version="1.1" xmlns="http://www.w3.org/2000/svg" xmlns:xlink="http://www.w3.org/1999/xlink">
    <style>
        :root, .palette0 {color: currentColor;
            --color0: #f5f5f5;
            --color1: #f8f8f8;
            --color2: #f6f6f6;
            --color3: #f7f7f7;
            --color4: #f9f9f9;
        }
    </style>
    <path opacity="1" fill="var(--color3, #f7f7f7)" d="M80.5 66.5c2.0273-0.1621 4.0273 45e-4 6 0.5 64.464 56.796 128.631 113.962 192.5 171.5 53.833-52.5 107.667-105 161.5-157.5 4.068-4.1033 8.401-4.4367 13-1 3.167 3.1667 6.333 6.3333 9.5 9.5 4 4.6667 8 9.3333 12 14 0.743 3.283 0.076 6.283-2 9-53.346 51.846-106.512 103.846-159.5 156 55.659 50.157 111.492 100.157 167.5 150 1.457 2.866 1.79 5.866 1 9-6.48 8.114-13.313 15.947-20.5 23.5-3.667 2-7.333 2-11 0-56.5-50.5-113-101-169.5-151.5C219.196 358.97 157.696 418.804 96.5 479c-3 2-6 2-9 0-7.1667-7.167-14.3333-14.333-21.5-21.5-2-3.667-2-7.333 0-11 60.196-59.196 120.696-118.03 181.5-176.5C184.333 213.5 121.167 157 58 100.5c-2.1198-3.8662-1.7865-7.5329 1-11 7.061-7.89 14.2277-15.5567 21.5-23z" />
</svg>