<svg viewBox="0 0 540 540" width="32" height="32" clip-rule="evenodd" fill-rule="evenodd" image-rendering="optimizequality" shape-rendering="geometricprecision" text-rendering="geometricprecision" version="1.1" xmlns="http://www.w3.org/2000/svg" xmlns:xlink="http://www.w3.org/1999/xlink">
    <style>
        :root, .palette0 {color: currentColor;
            --color0: #f5f5f5;
            --color1: #f8f8f8;
            --color2: #f6f6f6;
            --color3: #f7f7f7;
            --color4: #f9f9f9;
        }
    </style>
    <path opacity="1" fill="var(--color4, #f9f9f9)" d="M539.5 161.5c0 12 0 24 0 36-1.462 0.958-2.795 2.124-4 3.5-177 0.667-354 0.667-531 0-2.1869-1.025-3.8536-2.525-5-4.5 0-11.333 0-22.667 0-34 1.1464-1.975 2.8131-3.475 5-4.5 177-0.667 354-0.667 531 0 1.205 1.376 2.538 2.542 4 3.5z" />
    <path opacity="1" fill="var(--color4, #f9f9f9)" d="M539.5 342.5c0 11.667 0 23.333 0 35-1.146 1.975-2.813 3.475-5 4.5-176.333 0.667-352.667 0.667-529 0-2.5226-1.36-4.5226-3.193-6-5.5 0-11 0-22 0-33 1.4774-2.307 3.4774-4.14 6-5.5 176.333-0.667 352.667-0.667 529 0 2.187 1.025 3.854 2.525 5 4.5z" />
</svg>