<svg viewBox="0 0 540 540" width="32" height="32" clip-rule="evenodd" fill-rule="evenodd" image-rendering="optimizequality" shape-rendering="geometricprecision" text-rendering="geometricprecision" version="1.1" xmlns="http://www.w3.org/2000/svg" xmlns:xlink="http://www.w3.org/1999/xlink">
    <style>
        :root, .palette0 {color: currentColor;
            --color0: #f5f5f5;
            --color1: #f8f8f8;
            --color2: #f6f6f6;
            --color3: #f7f7f7;
            --color4: #f9f9f9;
        }
    </style>
    <path opacity="1" fill="var(--color1, #f8f8f8)" d="M90.5 65.5c3.7194-0.4975 7.0527 0.3358 10 2.5 56.887 56.887 113.721 113.721 170.5 170.5 56.5-56.5 113-113 169.5-169.5 3-2 6-2 9 0 7.5 7.5 15 15 22.5 22.5 2 3 2 6 0 9-56.347 56.18-112.514 112.514-168.5 169 55.681 56.514 111.847 112.514 168.5 168 2 3.667 2 7.333 0 11-6.833 6.833-13.667 13.667-20.5 20.5-3.242 2.325-6.576 2.658-10 1-56.819-55.986-113.486-112.153-170-168.5-57.486 56.986-114.82 114.153-172 171.5-2.866 1.457-5.866 1.79-9 1-7.5-7.5-15-15-22.5-22.5-2-3.333-2-6.667 0-10 57.167-57.167 114.333-114.333 171.5-171.5C182.639 212.806 125.473 155.972 68 99.5c-3.3333-4-3.3333-8 0-12 7.3952-7.5632 14.8952-14.8965 22.5-22z" />
</svg>