<svg viewBox="0 0 540 540" width="32" height="32" clip-rule="evenodd" fill-rule="evenodd" image-rendering="optimizequality" shape-rendering="geometricprecision" text-rendering="geometricprecision" version="1.1" xmlns="http://www.w3.org/2000/svg" xmlns:xlink="http://www.w3.org/1999/xlink">
    <style>
        :root, .palette0 {color: currentColor;
            --color0: #f5f5f5;
            --color1: #f8f8f8;
            --color2: #f6f6f6;
            --color3: #f7f7f7;
            --color4: #f9f9f9;
        }
    </style>
    <path opacity="1" fill="var(--color3, #f7f7f7)" d="M39.5 88.5c2.0273-0.1621 4.0273 45e-4 6 0.5 99 50.167 198 100.333 297 150.5 46.166-27.248 92.166-54.748 138-82.5 3.833-2.753 7.833-3.086 12-1 7.03 9.727 13.03 20.06 18 31-0.696 1.893-1.53 3.726-2.5 5.5-38.918 23.877-78.085 47.377-117.5 70.5 41.667 21.5 83.333 43 125 64.5 1.377 1.789 2.377 3.789 3 6-4.561 10.122-9.394 20.122-14.5 30-2.995 2.765-6.495 3.598-10.5 2.5-49.667-25.167-99.333-50.333-149-75.5-97.247 58.787-194.914 116.787-293 174-1.2946-0.598-2.6279-1.098-4-1.5-6.4605-9.082-12.2938-18.582-17.5-28.5-1.0274-3.68-0.1941-6.847 2.5-9.5 88.168-52.918 176.501-105.585 265-158-90.667-46-181.333-92-272-138-3.5349-2.707-4.7016-6.207-3.5-10.5 4.3333-8.667 8.6667-17.333 13-26 1.3968-1.5703 2.8968-2.9036 4.5-4z" />
</svg>