<svg viewBox="0 0 540 540" width="32" height="32" clip-rule="evenodd" fill-rule="evenodd" image-rendering="optimizequality" shape-rendering="geometricprecision" text-rendering="geometricprecision" version="1.1" xmlns="http://www.w3.org/2000/svg" xmlns:xlink="http://www.w3.org/1999/xlink">
    <style>
        :root, .palette0 {color: currentColor;
            --color0: #f5f5f5;
            --color1: #f8f8f8;
            --color2: #f6f6f6;
            --color3: #f7f7f7;
            --color4: #f9f9f9;
        }
    </style>
    <path opacity="1" fill="var(--color1, #f8f8f8)" d="M53.5 78.5c2.8198-0.2525 5.4865 0.2475 8 1.5 83.199 53.364 166.533 106.531 250 159.5 51.192-38.359 102.526-76.526 154-114.5 3.499-2.704 7.166-3.037 11-1 6.864 8.23 13.364 16.73 19.5 25.5 0.79 3.134 0.457 6.134-1 9-47.5 35.5-95 71-142.5 106.5 49.497 31.916 99.164 63.583 149 95 4.163 2.821 5.663 6.655 4.5 11.5-5.775 9.44-11.942 18.606-18.5 27.5-3.464 0.817-6.798 0.483-10-1-54.497-35.083-109.164-69.916-164-104.5-80.178 59.256-160.178 118.756-240 178.5-3.2024 1.483-6.5357 1.817-10 1-7.2185-8.884-14.0518-18.051-20.5-27.5-0.6192-3.808 0.5475-6.974 3.5-9.5 75.489-56.244 151.155-112.244 227-168-78.667-50-157.333-100-236-150-4.2345-3.028-5.4012-6.861-3.5-11.5 5.3031-10.3105 11.8031-19.6439 19.5-28z" />
</svg>