<svg viewBox="0 0 540 540" width="32" height="32" clip-rule="evenodd" fill-rule="evenodd" image-rendering="optimizequality" shape-rendering="geometricprecision" text-rendering="geometricprecision" version="1.1" xmlns="http://www.w3.org/2000/svg" xmlns:xlink="http://www.w3.org/1999/xlink">
    <style>
        :root, .palette0 {color: currentColor;
            --color0: #f5f5f5;
            --color1: #f8f8f8;
            --color2: #f6f6f6;
            --color3: #f7f7f7;
            --color4: #f9f9f9;
        }
    </style>
    <path opacity="1" fill="var(--color3, #f7f7f7)" d="M23.5 106.5c134.502 43.723 268.835 88.056 403 133 25.373-10.069 50.707-20.235 76-30.5 7.046-2.895 11.879-0.729 14.5 6.5 3 7.667 6 15.333 9 23 1.312 6.372-1.188 10.538-7.5 12.5-8.667 3.333-17.333 6.667-26 10 12.371 4.122 24.538 8.622 36.5 13.5 0.97 1.774 1.804 3.607 2.5 5.5-2.965 9.895-6.132 19.728-9.5 29.5-1.52 3.519-4.186 5.519-8 6-27.896-8.965-55.729-18.132-83.5-27.5-1.667-0.667-3.333-0.667-5 0-129.333 51.333-258.667 102.667-388 154-5.1779 2.554-9.6779 1.721-13.5-2.5-3.6667-9.333-7.3333-18.667-11-28-0.5056-3.174 0.3278-6.007 2.5-8.5 115.174-46.392 230.507-92.392 346-138-116.396-38.465-232.729-77.132-349-116-3.5349-2.707-4.7016-6.207-3.5-10.5 3-9 6-18 9-27 1.3516-2.249 3.1849-3.916 5.5-5z" />
</svg>