<svg viewBox="0 0 540 540" width="32" height="32" clip-rule="evenodd" fill-rule="evenodd" image-rendering="optimizequality" shape-rendering="geometricprecision" text-rendering="geometricprecision" version="1.1" xmlns="http://www.w3.org/2000/svg" xmlns:xlink="http://www.w3.org/1999/xlink">
    <style>
        :root, .palette0 {color: currentColor;
            --color0: #f5f5f5;
            --color1: #f8f8f8;
            --color2: #f6f6f6;
            --color3: #f7f7f7;
            --color4: #f9f9f9;
        }
    </style>
    <path opacity="1" fill="var(--color3, #f7f7f7)" d="M73.5 68.5c4.744-0.4605 8.744 1.0395 12 4.5 66.521 55.355 133.188 110.522 200 165.5 53.667-49.833 107.333-99.667 161-149.5 3.242-2.3246 6.576-2.6579 10-1 7.531 7.197 14.698 14.697 21.5 22.5 2 3.333 2 6.667 0 10-52.376 49.211-104.876 98.211-157.5 147 55.646 45.811 111.146 91.811 166.5 138 1.457 2.866 1.79 5.866 1 9-6.415 9.086-13.582 17.586-21.5 25.5-3.134 0.79-6.134 0.457-9-1-56.482-47.072-113.149-93.905-170-140.5-64.817 59.649-129.484 119.483-194 179.5-3.499 2.704-7.1656 3.037-11 1-7.1795-6.879-14.0129-14.046-20.5-21.5-2.7205-3.138-3.0539-6.471-1-10 63.532-59.867 127.366-119.367 191.5-178.5C185.724 214.525 119.224 159.692 53 104.5c-2.7865-3.467-3.1198-7.1338-1-11 7.0608-8.5506 14.2274-16.8839 21.5-25z" />
</svg>