<svg viewBox="0 0 540 540" width="32" height="32" clip-rule="evenodd" fill-rule="evenodd" image-rendering="optimizequality" shape-rendering="geometricprecision" text-rendering="geometricprecision" version="1.1" xmlns="http://www.w3.org/2000/svg" xmlns:xlink="http://www.w3.org/1999/xlink">
    <style>
        :root, .palette0 {color: currentColor;
            --color0: #f5f5f5;
            --color1: #f8f8f8;
            --color2: #f6f6f6;
            --color3: #f7f7f7;
            --color4: #f9f9f9;
        }
    </style>
    <path opacity="1" fill="var(--color1, #f8f8f8)" d="M64.5 72.5c3.7194-0.4975 7.0527 0.3358 10 2.5 73.229 54.9 146.729 109.4 220.5 163.5 53.094-44.473 105.927-89.306 158.5-134.5 3.758-2.869 7.758-3.202 12-1 6.618 7.407 13.118 14.907 19.5 22.5 2 3.333 2 6.667 0 10-51.006 43.509-101.839 87.175-152.5 131 54.026 40.526 108.192 80.859 162.5 121 1.457 2.866 1.79 5.866 1 9-6.229 9.285-13.062 18.118-20.5 26.5-3.134 0.79-6.134 0.457-9-1-56.428-41.961-112.928-83.794-169.5-125.5C225.611 357.114 154.111 417.614 82.5 478c-2.3333 0.667-4.6667 0.667-7 0-9.1262-8.628-16.7929-18.295-23-29 0.5-1.5 1-3 1.5-4.5 68.54-58.875 137.373-117.375 206.5-175.5C188.051 215.552 115.884 161.718 44 107.5c-1.8503-3.037-1.8503-6.037 0-9 5.3333-7.3333 10.6667-14.6667 16-22 1.3968-1.5703 2.8968-2.9036 4.5-4z" />
</svg>