<svg viewBox="0 0 540 540" width="32" height="32" clip-rule="evenodd" fill-rule="evenodd" image-rendering="optimizequality" shape-rendering="geometricprecision" text-rendering="geometricprecision" version="1.1" xmlns="http://www.w3.org/2000/svg" xmlns:xlink="http://www.w3.org/1999/xlink">
    <style>
        :root, .palette0 {color: currentColor;
            --color0: #f5f5f5;
            --color1: #f8f8f8;
            --color2: #f6f6f6;
            --color3: #f7f7f7;
            --color4: #f9f9f9;
        }
    </style>
    <path opacity="1" fill="var(--color3, #f7f7f7)" d="M85.5 65.5c2.8198-0.2525 5.4865 0.2475 8 1.5 60.214 57.383 120.881 114.216 182 170.5 55.181-55.014 110.514-109.847 166-164.5 2.667-0.6667 5.333-0.6667 8 0 7.5 7.5 15 15 22.5 22.5 1.879 3.3005 1.879 6.634 0 10-54.374 54.541-108.874 108.874-163.5 163 56.292 53.123 112.458 106.456 168.5 160 2 3 2 6 0 9-7.135 8.136-14.635 15.97-22.5 23.5-3.134 0.79-6.134 0.457-9-1-56.484-52.984-112.818-106.15-169-159.5-59.153 58.653-118.153 117.486-177 176.5-2.866 1.457-5.866 1.79-9 1-8.5-7.167-16.3333-15-23.5-23.5-0.6667-2.667-0.6667-5.333 0-8 59.014-58.847 117.847-117.847 176.5-177-60.318-56.484-120.484-113.15-180.5-170-2-3.6667-2-7.3333 0-11 7.5243-7.7844 15.0243-15.451 22.5-23z" />
</svg>