<svg viewBox="0 0 540 540" width="32" height="32" clip-rule="evenodd" fill-rule="evenodd" image-rendering="optimizequality" shape-rendering="geometricprecision" text-rendering="geometricprecision" version="1.1" xmlns="http://www.w3.org/2000/svg" xmlns:xlink="http://www.w3.org/1999/xlink">
    <style>
        :root, .palette0 {color: currentColor;
            --color0: #f5f5f5;
            --color1: #f8f8f8;
            --color2: #f6f6f6;
            --color3: #f7f7f7;
            --color4: #f9f9f9;
        }
    </style>
    <path opacity="1" fill="var(--color2, #f6f6f6)" d="M87.5 65.5c3.4783-0.3158 6.8117 0.1842 10 1.5 58.5 57.167 117 114.333 175.5 171.5 55.833-55.833 111.667-111.667 167.5-167.5 3.333-2 6.667-2 10 0 6.833 6.8333 13.667 13.6667 20.5 20.5 3.333 4 3.333 8 0 12-55.347 55.18-110.514 110.514-165.5 166 55.988 55.154 112.154 110.154 168.5 165 2.037 3.834 1.704 7.501-1 11-6.833 6.833-13.667 13.667-20.5 20.5-3.333 2-6.667 2-10 0-56.181-55.015-112.514-109.848-169-164.5-57.82 57.32-115.486 114.82-173 172.5-3.499 2.704-7.1656 3.037-11 1-7.1667-7.167-14.3333-14.333-21.5-21.5-1.4568-2.866-1.7901-5.866-1-9 58.167-58.167 116.333-116.333 174.5-174.5C182.667 212.5 123.833 155 65 97.5c-1.0404-4.0328-0.3737-7.6995 2-11 7.0359-6.8685 13.8693-13.8685 20.5-21z" />
</svg>