<svg viewBox="0 0 1080 1080" width="32" height="32" preserveAspectRatio="xMidYMid meet" version="1.0" xmlns="http://www.w3.org/2000/svg" xmlns:xlink="http://www.w3.org/1999/xlink">
    <metadata>
        Created by potrace 1.16, written by Peter Selinger 2001-2019
    </metadata>
    <path fill="currentColor" transform="matrix(0.1, 0, 0, -0.1, 0, 1080)" d="M0 5400V0h5400 5400v5400 5400H5400 0zM1948 9458c24-13 258-238 554-532 818-813 2574-2554 2795-2769l141-139 1673 1675c921 921 1692 1686 1713 1701 45 30 101 34 150 11 18-9 129-113 248-233 239-240 251-257 228-344-10-39-178-210-1703-1736L6055 5400l45-41c25-23 297-292 605-598 308-305 787-781 1065-1056 1342-1330 1664-1652 1681-1680 29-46 25-112-10-166-39-59-419-435-454-448-45-17-99-13-139 12-20 12-243 227-495 477s-681 675-953 945c-272 269-754 747-1070 1060-316 314-646 640-733 725l-157 155-1723-1722c-947-946-1736-1728-1754-1737-40-20-105-21-141-2-15 8-124 113-244 233-184 185-218 224-228 261-25 96-154-42 1740 1852l1730 1728-513 509c-512 509-984 977-2137 2118-338 335-661 655-717 711-56 55-107 113-113 128-16 43-12 108 10 143 35 58 412 435 455 454 53 25 93 24 143-3z" />
</svg>