<svg viewBox="0 0 1080 1080" width="32" height="32" preserveAspectRatio="xMidYMid meet" version="1.0" xmlns="http://www.w3.org/2000/svg" xmlns:xlink="http://www.w3.org/1999/xlink">
    <metadata>
        Created by potrace 1.16, written by Peter Selinger 2001-2019
    </metadata>
    <path fill="currentColor" transform="matrix(0.1, 0, 0, -0.1, 0, 1080)" d="M1572 9423c-37-21-418-452-434-492-14-35-11-96 6-129 20-38 58-73 561-513 248-216 522-457 610-534 393-346 1480-1300 2408-2114l269-235-139-136c-76-75-399-388-718-695s-650-627-735-710-281-272-435-421c-154-148-417-402-585-564s-433-418-590-569c-461-445-487-472-498-513-18-65 1-115 70-188 264-277 381-390 418-401 48-14 97-6 138 24 27 21 283 265 737 706 369 359 466 452 725 701 151 146 343 330 425 410 83 80 276 267 430 415 154 149 349 338 435 421 85 82 288 278 450 434 162 157 347 336 411 398l116 113 394-347c217-190 495-435 619-544s457-401 740-650 547-480 586-514c39-33 142-124 230-201 87-78 308-271 489-430 182-159 332-292 335-296 26-34 134-50 185-27 31 14 421 456 435 494 15 37 12 101-5 134-8 15-104 106-212 202-109 95-214 187-233 204-19 18-172 152-340 299-1133 994-1600 1403-1675 1470-110 97-584 513-757 664-86 75-157 141-157 148-1 6 8 18 18 25 11 8 149 140 308 293 361 351 497 482 853 825 407 393 902 871 1065 1030 77 74 324 313 548 530 225 216 414 405 422 420 24 46 26 92 8 132-10 21-114 137-231 258-181 186-219 221-254 231-61 16-101 4-161-49-49-43-381-362-1202-1157-170-165-440-426-600-580-296-285-638-616-1144-1105-156-151-287-275-291-275-5 0-75 59-156 130-82 72-392 343-689 604s-571 502-610 535c-38 33-110 97-160 141-49 45-108 96-131 115-22 19-315 276-650 570-335 295-737 648-894 785-156 138-350 308-430 378-80 71-158 137-175 148-38 24-110 25-153 2z" />
</svg>