<svg viewBox="0 0 1080 1080" width="32" height="32" preserveAspectRatio="xMidYMid meet" version="1.0" xmlns="http://www.w3.org/2000/svg" xmlns:xlink="http://www.w3.org/1999/xlink">
    <metadata>
        Created by potrace 1.16, written by Peter Selinger 2001-2019
    </metadata>
    <g fill="currentColor" transform="matrix(0.1, 0, 0, -0.1, 0, 1080)">
        <path d="M1 9143c1-912 4-1644 9-1627 10 46 44 89 84 108 31 15 463 16 5306 16s5275-1 5306-16c40-19 74-62 84-108 5-17 8 715 9 1627l1 1657H5400 0z" />
        <path d="M2 5400c0-839 3-1511 7-1495 11 46 37 79 80 103l39 22h5272 5272l39-22c43-24 69-57 80-103 4-16 7 656 7 1495s-3 1511-7 1495c-11-46-37-79-80-103l-39-22H5404 136l-42 20c-46 23-73 57-85 105-4 16-7-656-7-1495z" />
        <path d="M1 1663 0 0h5400 5400l-1 1658c-1 911-4 1643-8 1627-12-47-40-84-82-106-38-19-110-19-5314-19-4646 0-5279 2-5305 15-37 19-72 69-81 114-4 20-7-712-8-1626z" />
    </g>
</svg>