<?xml version="1.0" standalone="no"?>
<!DOCTYPE svg PUBLIC "-//W3C//DTD SVG 20010904//EN"
 "http://www.w3.org/TR/2001/REC-SVG-20010904/DTD/svg10.dtd">
<svg version="1.0" xmlns="http://www.w3.org/2000/svg"
 width="1080.000000pt" height="1080.000000pt" viewBox="0 0 1080.000000 1080.000000"
 preserveAspectRatio="xMidYMid meet">
<metadata>
Created by potrace 1.16, written by Peter Selinger 2001-2019
</metadata>
<g transform="translate(0.000000,1080.000000) scale(0.100000,-0.100000)"
fill="#000000" stroke="none">
<path d="M0 5400 l0 -5400 5400 0 5400 0 0 5400 0 5400 -5400 0 -5400 0 0
-5400z m427 2675 c150 -20 554 -74 1473 -195 85 -12 220 -30 300 -41 80 -10
498 -66 930 -124 432 -57 1055 -141 1385 -185 330 -45 668 -90 750 -101 83
-11 701 -94 1375 -185 674 -90 1407 -189 1630 -219 385 -52 600 -80 1720 -231
698 -93 691 -92 719 -111 53 -35 88 -108 77 -161 -3 -15 -22 -146 -41 -292
-20 -146 -40 -277 -46 -293 -16 -39 -72 -85 -114 -93 -20 -3 -117 5 -232 21
-109 15 -281 38 -383 51 -102 14 -250 33 -330 44 -238 32 -1527 205 -2120 285
-140 19 -455 61 -700 94 -488 66 -1367 184 -1945 262 -203 27 -620 83 -925
124 -305 41 -638 85 -740 99 -102 14 -255 34 -340 45 -85 11 -274 36 -420 56
-146 19 -335 44 -420 55 -195 26 -266 36 -410 55 -63 9 -164 22 -225 30 -406
51 -1245 167 -1271 175 -17 6 -44 24 -61 40 -53 51 -54 79 -18 351 18 134 35
270 39 301 4 32 17 72 29 90 21 31 95 78 123 78 7 0 93 -11 191 -25z m10134
-2927 c52 -17 90 -48 106 -85 15 -37 103 -570 103 -626 0 -38 -31 -90 -71
-119 -25 -19 -161 -46 -524 -103 -93 -14 -332 -53 -530 -85 -198 -33 -664
-109 -1035 -170 -371 -60 -907 -148 -1190 -195 -283 -46 -654 -107 -825 -135
-653 -107 -1115 -183 -1525 -250 -838 -138 -2250 -368 -2670 -436 -118 -19
-282 -46 -365 -59 -82 -13 -247 -40 -365 -59 -414 -68 -718 -117 -1054 -172
-216 -36 -351 -53 -373 -49 -40 7 -96 54 -112 92 -12 32 -101 569 -101 614 0
44 34 104 73 128 26 16 154 40 583 111 669 110 1106 181 1319 215 88 14 171
28 185 30 14 2 57 9 95 15 101 16 437 70 925 150 234 39 853 140 1375 226 523
85 1155 189 1405 230 250 41 716 117 1035 169 319 52 756 124 970 159 597 99
889 146 1660 271 676 110 869 142 871 144 1 1 16 -4 35 -11z"/>
</g>
</svg>
