<svg viewBox="0 0 1080 1080" width="32" height="32" preserveAspectRatio="xMidYMid meet" version="1.0" xmlns="http://www.w3.org/2000/svg" xmlns:xlink="http://www.w3.org/1999/xlink">
    <metadata>
        Created by potrace 1.16, written by Peter Selinger 2001-2019
    </metadata>
    <g fill="currentColor" transform="matrix(0.1, 0, 0, -0.1, 0, 1080)">
        <path d="M105 7626c-46-21-83-66-94-116-14-59-14-564-1-612 14-48 55-97 97-114 49-21 10537-21 10586 0 42 17 83 66 97 114 13 48 13 553-1 612-12 55-59 106-109 120-23 6-1871 10-5290 10-4368-1-5260-3-5285-14z" />
        <path d="M105 4016c-40-17-82-67-95-114-14-50-13-565 1-617 13-47 52-92 96-111 27-12 847-14 5285-14 3417 0 5265 4 5288 10 51 14 101 69 111 122 12 63 11 566-1 610-13 44-52 93-91 113-24 13-690 15-5296 15-4357-1-5273-3-5298-14z" />
    </g>
</svg>