<?xml version="1.0" standalone="no"?>
<!DOCTYPE svg PUBLIC "-//W3C//DTD SVG 20010904//EN"
 "http://www.w3.org/TR/2001/REC-SVG-20010904/DTD/svg10.dtd">
<svg version="1.0" xmlns="http://www.w3.org/2000/svg"
 width="1080.000000pt" height="1080.000000pt" viewBox="0 0 1080.000000 1080.000000"
 preserveAspectRatio="xMidYMid meet">
<metadata>
Created by potrace 1.16, written by Peter Selinger 2001-2019
</metadata>
<g transform="translate(0.000000,1080.000000) scale(0.100000,-0.100000)"
fill="#000000" stroke="none">
<path d="M0 5400 l0 -5400 5400 0 5400 0 0 5400 0 5400 -5400 0 -5400 0 0
-5400z m1948 4058 c24 -13 258 -238 554 -532 818 -813 2574 -2554 2795 -2769
l141 -139 1673 1675 c921 921 1692 1686 1713 1701 45 30 101 34 150 11 18 -9
129 -113 248 -233 239 -240 251 -257 228 -344 -10 -39 -178 -210 -1703 -1736
l-1692 -1692 45 -41 c25 -23 297 -292 605 -598 308 -305 787 -781 1065 -1056
1342 -1330 1664 -1652 1681 -1680 29 -46 25 -112 -10 -166 -39 -59 -419 -435
-454 -448 -45 -17 -99 -13 -139 12 -20 12 -243 227 -495 477 -252 250 -681
675 -953 945 -272 269 -754 747 -1070 1060 -316 314 -646 640 -733 725 l-157
155 -1723 -1722 c-947 -946 -1736 -1728 -1754 -1737 -40 -20 -105 -21 -141 -2
-15 8 -124 113 -244 233 -184 185 -218 224 -228 261 -25 96 -154 -42 1740
1852 l1730 1728 -513 509 c-512 509 -984 977 -2137 2118 -338 335 -661 655
-717 711 -56 55 -107 113 -113 128 -16 43 -12 108 10 143 35 58 412 435 455
454 53 25 93 24 143 -3z"/>
</g>
</svg>
