<svg viewBox="0 0 1080 1080" width="32" height="32" preserveAspectRatio="xMidYMid meet" version="1.0" xmlns="http://www.w3.org/2000/svg" xmlns:xlink="http://www.w3.org/1999/xlink">
    <metadata>
        Created by potrace 1.16, written by Peter Selinger 2001-2019
    </metadata>
    <path fill="currentColor" transform="matrix(0.1, 0, 0, -0.1, 0, 1080)" d="M1747 9466c-21-8-47-22-59-33-64-58-405-428-415-451-16-36-16-86 1-125 13-32 154-168 1446-1396 234-223 513-489 620-591s382-364 610-580c675-641 832-791 885-842l50-48-1762-1763C1206 1720 1328 1849 1350 1757c4-21 10-40 12-42 51-59 432-433 453-446 43-27 124-25 161 2 16 12 819 811 1784 1776l1755 1753 155-147c238-225 954-906 1055-1003 50-48 140-133 200-191 179-169 882-839 1543-1470 228-217 428-404 445-416 42-31 90-38 139-22 33 10 82 56 251 234 115 121 216 234 223 252 17 39 18 79 3 121-7 22-163 177-497 494-268 254-534 507-591 562-57 56-109 106-115 111-14 11-163 153-311 295-55 53-282 269-505 481-222 211-458 436-525 499-66 63-286 272-489 464l-367 350 1655 1655c1492 1493 1656 1660 1666 1699 21 82 12 96-232 338-123 122-233 227-245 233-27 14-93 14-130 0-16-5-742-723-1681-1662-908-909-1656-1653-1661-1655-4-1-303 277-662 619-360 343-782 744-939 893s-384 366-505 481c-121 116-447 426-725 690-278 263-550 522-605 576-92 88-156 147-195 176-26 19-83 24-123 9z" />
</svg>