<svg viewBox="0 0 1080 1080" width="32" height="32" preserveAspectRatio="xMidYMid meet" version="1.0" xmlns="http://www.w3.org/2000/svg" xmlns:xlink="http://www.w3.org/1999/xlink">
    <metadata>
        Created by potrace 1.16, written by Peter Selinger 2001-2019
    </metadata>
    <path fill="currentColor" transform="matrix(0.1, 0, 0, -0.1, 0, 1080)" d="M1344 9341c-28-13-58-41-97-92-81-107-130-171-217-284-42-55-85-114-94-132-32-63-14-149 42-193 59-48 355-276 1067-820 149-113 531-406 850-650s747-571 950-727c204-156 451-345 550-421 98-75 251-192 340-260 88-67 185-141 215-165s95-74 143-111c85-66 88-69 70-86-10-9-268-235-573-501-305-267-764-667-1020-890-583-509-1470-1284-2008-1753-260-228-417-371-427-392-19-40-19-107-1-142 29-53 401-467 436-484 78-38 122-20 271 110 68 60 358 313 644 563 287 250 732 638 990 864 259 225 666 581 905 789 239 209 629 549 865 756 237 206 478 417 537 468l107 92 123-95c163-126 783-602 1238-950 389-297 1252-958 1385-1060 568-436 688-525 719-531 41-7 92 3 124 24 18 12 171 203 324 407 4 6 19 24 33 41 31 39 45 76 45 119 0 76-18 94-340 340-168 128-467 357-665 509s-421 322-495 379c-178 135-806 616-897 686-39 31-263 202-497 381s-425 328-426 331c0 5 506 452 734 649 43 37 745 649 1146 999 129 113 237 208 240 211s57 50 120 105c344 297 837 732 854 753 25 32 33 120 15 155-15 27-347 413-396 459-52 50-111 60-175 30-20-9-101-73-180-142-79-70-431-378-783-685-941-822-1061-927-1500-1310-220-192-451-394-513-449-63-54-149-130-193-168l-79-69-68 53c-38 29-83 64-101 78-32 24-111 85-666 510-132 101-285 218-340 260-516 394-823 629-1e3 765-115 89-257 197-315 241s-364 279-680 521-636 487-711 544-211 162-303 232c-213 164-239 176-322 138z" />
</svg>