<svg viewBox="0 0 1080 1080" width="32" height="32" preserveAspectRatio="xMidYMid meet" version="1.0" xmlns="http://www.w3.org/2000/svg" xmlns:xlink="http://www.w3.org/1999/xlink">
    <metadata>
        Created by potrace 1.16, written by Peter Selinger 2001-2019
    </metadata>
    <path fill="currentColor" transform="matrix(0.1, 0, 0, -0.1, 0, 1080)" d="M0 5400V0h5400 5400v5400 5400H5400 0zM1957 9450c16-6 763-746 1738-1721l1711-1710 1684 1686c927 927 1705 1699 1729 1715 51 34 104 39 155 15 18-9 129-113 248-233 239-240 251-257 228-344-10-39-179-211-1718-1750L6025 5400 7732 3693c1539-1540 1708-1712 1718-1750 22-88 11-105-228-347-120-120-231-224-249-232-42-18-85-18-130 1-24 10-568 548-1736 1715L5406 4781 3700 3076c-938-937-1719-1711-1737-1720-39-20-93-21-136-2-18 8-129 112-249 232-240 242-251 259-228 347 11 38 182 213 1718 1749 939 939 1708 1711 1710 1716 1 5-766 778-1706 1718-1605 1605-1709 1712-1720 1755-22 87-13 101 221 338 117 117 226 222 242 232 33 21 98 25 142 9z" />
</svg>