<?xml version="1.0" standalone="no"?>
<!DOCTYPE svg PUBLIC "-//W3C//DTD SVG 20010904//EN"
 "http://www.w3.org/TR/2001/REC-SVG-20010904/DTD/svg10.dtd">
<svg version="1.0" xmlns="http://www.w3.org/2000/svg"
 width="1080.000000pt" height="1080.000000pt" viewBox="0 0 1080.000000 1080.000000"
 preserveAspectRatio="xMidYMid meet">
<metadata>
Created by potrace 1.16, written by Peter Selinger 2001-2019
</metadata>
<g transform="translate(0.000000,1080.000000) scale(0.100000,-0.100000)"
fill="#000000" stroke="none">
<path d="M0 5400 l0 -5400 5400 0 5400 0 0 5400 0 5400 -5400 0 -5400 0 0
-5400z m739 3328 c119 -47 788 -303 971 -373 91 -35 302 -116 470 -180 168
-64 548 -209 845 -322 297 -113 563 -214 590 -225 28 -11 61 -23 75 -28 14 -4
66 -24 115 -43 219 -85 1940 -744 2320 -889 231 -87 454 -172 495 -188 41 -16
305 -117 585 -224 281 -107 546 -208 590 -225 44 -17 86 -31 95 -31 8 0 184
77 390 171 206 94 395 180 420 191 25 11 92 42 150 68 58 26 344 156 636 289
335 152 543 241 563 241 42 0 91 -21 119 -52 38 -42 272 -567 272 -611 0 -44
-18 -82 -53 -115 -22 -21 -265 -135 -892 -419 -115 -52 -237 -107 -270 -121
-33 -15 -89 -40 -124 -58 l-65 -31 45 -15 c24 -9 193 -73 374 -143 182 -70
418 -160 525 -200 335 -126 457 -173 489 -189 38 -20 81 -92 81 -137 0 -30
-178 -518 -216 -590 -8 -16 -30 -40 -50 -55 -66 -51 -111 -42 -394 71 -19 8
-159 61 -310 119 -281 106 -702 267 -1305 499 -187 72 -347 130 -355 129 -8 0
-184 -78 -390 -172 -684 -313 -780 -357 -1445 -658 -363 -165 -995 -453 -1405
-640 -410 -187 -864 -394 -1010 -460 -974 -442 -1194 -542 -1610 -732 -256
-117 -537 -245 -625 -285 -88 -40 -269 -123 -403 -184 -255 -116 -293 -127
-350 -97 -15 8 -38 25 -50 39 -30 32 -262 540 -269 588 -7 48 11 99 45 132 15
14 101 59 192 100 91 41 190 86 220 100 789 361 2240 1022 2590 1179 25 11
356 162 735 335 982 449 1433 654 1726 786 141 64 289 131 330 150 41 19 182
83 314 142 132 60 244 111 248 115 5 4 -33 24 -85 43 -51 20 -493 189 -983
376 -489 186 -1086 414 -1325 506 -582 223 -1076 412 -1295 495 -99 38 -229
87 -290 110 -208 79 -400 152 -630 240 -126 49 -338 130 -470 180 -1061 406
-1363 524 -1384 543 -29 27 -51 77 -51 116 0 17 27 101 59 188 164 438 170
451 248 478 46 17 82 12 182 -27z"/>
</g>
</svg>
