<svg viewBox="0 0 1080 1080" width="32" height="32" preserveAspectRatio="xMidYMid meet" version="1.0" xmlns="http://www.w3.org/2000/svg" xmlns:xlink="http://www.w3.org/1999/xlink">
    <metadata>
        Created by potrace 1.16, written by Peter Selinger 2001-2019
    </metadata>
    <path fill="currentColor" transform="matrix(0.1, 0, 0, -0.1, 0, 1080)" d="M0 5400V0h5400 5400v5400 5400H5400 0zM739 8728c119-47 788-303 971-373 91-35 302-116 470-180s548-209 845-322 563-214 590-225c28-11 61-23 75-28 14-4 66-24 115-43 219-85 1940-744 2320-889 231-87 454-172 495-188s305-117 585-224c281-107 546-208 590-225s86-31 95-31c8 0 184 77 390 171s395 180 420 191 92 42 150 68 344 156 636 289c335 152 543 241 563 241 42 0 91-21 119-52 38-42 272-567 272-611s-18-82-53-115c-22-21-265-135-892-419-115-52-237-107-270-121-33-15-89-40-124-58l-65-31 45-15c24-9 193-73 374-143 182-70 418-160 525-200 335-126 457-173 489-189 38-20 81-92 81-137 0-30-178-518-216-590-8-16-30-40-50-55-66-51-111-42-394 71-19 8-159 61-310 119-281 106-702 267-1305 499-187 72-347 130-355 129-8 0-184-78-390-172-684-313-780-357-1445-658-363-165-995-453-1405-640s-864-394-1010-460c-974-442-1194-542-1610-732-256-117-537-245-625-285s-269-123-403-184c-255-116-293-127-350-97-15 8-38 25-50 39-30 32-262 540-269 588s11 99 45 132c15 14 101 59 192 100s190 86 220 100c789 361 2240 1022 2590 1179 25 11 356 162 735 335 982 449 1433 654 1726 786 141 64 289 131 330 150s182 83 314 142c132 60 244 111 248 115 5 4-33 24-85 43-51 20-493 189-983 376-489 186-1086 414-1325 506-582 223-1076 412-1295 495-99 38-229 87-290 110-208 79-400 152-630 240-126 49-338 130-470 180-1061 406-1363 524-1384 543-29 27-51 77-51 116 0 17 27 101 59 188 164 438 170 451 248 478 46 17 82 12 182-27z" />
</svg>