<?xml version="1.0" standalone="no"?>
<!DOCTYPE svg PUBLIC "-//W3C//DTD SVG 20010904//EN"
 "http://www.w3.org/TR/2001/REC-SVG-20010904/DTD/svg10.dtd">
<svg version="1.0" xmlns="http://www.w3.org/2000/svg"
 width="1080.000000pt" height="1080.000000pt" viewBox="0 0 1080.000000 1080.000000"
 preserveAspectRatio="xMidYMid meet">
<metadata>
Created by potrace 1.16, written by Peter Selinger 2001-2019
</metadata>
<g transform="translate(0.000000,1080.000000) scale(0.100000,-0.100000)"
fill="#000000" stroke="none">
<path d="M1 9143 c1 -912 4 -1644 9 -1627 10 46 44 89 84 108 31 15 463 16
5306 16 4843 0 5275 -1 5306 -16 40 -19 74 -62 84 -108 5 -17 8 715 9 1627 l1
1657 -5400 0 -5400 0 1 -1657z"/>
<path d="M2 5400 c0 -839 3 -1511 7 -1495 11 46 37 79 80 103 l39 22 5272 0
5272 0 39 -22 c43 -24 69 -57 80 -103 4 -16 7 656 7 1495 0 839 -3 1511 -7
1495 -11 -46 -37 -79 -80 -103 l-39 -22 -5268 0 -5268 0 -42 20 c-46 23 -73
57 -85 105 -4 16 -7 -656 -7 -1495z"/>
<path d="M1 1663 l-1 -1663 5400 0 5400 0 -1 1658 c-1 911 -4 1643 -8 1627
-12 -47 -40 -84 -82 -106 -38 -19 -110 -19 -5314 -19 -4646 0 -5279 2 -5305
15 -37 19 -72 69 -81 114 -4 20 -7 -712 -8 -1626z"/>
</g>
</svg>
