<svg viewBox="0 0 1080 1080" width="32" height="32" preserveAspectRatio="xMidYMid meet" version="1.0" xmlns="http://www.w3.org/2000/svg" xmlns:xlink="http://www.w3.org/1999/xlink">
    <metadata>
        Created by potrace 1.16, written by Peter Selinger 2001-2019
    </metadata>
    <path fill="currentColor" transform="matrix(0.1, 0, 0, -0.1, 0, 1080)" d="M995 9151c-16-10-37-27-46-37-16-18-282-451-308-501-19-38-14-116 12-154 24-36 32-41 692-441 209-127 493-299 630-383 138-84 419-255 625-380s501-304 655-398c302-184 432-263 765-464 242-147 809-492 1245-757 159-97 294-182 300-187 7-8 2-16-13-27-25-16-260-183-772-548-162-116-452-322-645-459-192-136-402-285-465-330-1157-823-1442-1025-1640-1165-129-92-338-240-465-330-126-90-297-211-380-270-368-261-365-258-365-352 0-39 8-58 49-120 133-197 311-435 341-455 40-28 107-30 152-7 17 9 78 50 137 92 58 41 126 90 151 107 25 18 86 61 135 97 50 36 176 125 280 199 105 74 417 296 695 494 278 197 676 480 885 628 209 149 409 291 445 317s189 134 340 242c432 306 1008 715 1460 1037 228 163 434 309 457 325l42 28 33-19c18-11 254-154 523-318 686-417 1009-613 1310-795 143-87 321-195 395-240 74-46 178-108 230-139 52-32 253-154 445-272 348-213 350-214 407-214 94 0 89-5 314 365 113 187 124 209 124 253 0 26-6 60-14 75-26 50 15 23-651 427-165 100-394 240-510 310-115 70-241 147-280 170-66 39-219 132-960 583-176 108-380 231-452 275-73 44-133 83-133 87 0 7 307 228 1240 890 173 123 531 377 795 565s532 378 596 424c142 99 167 123 175 168 12 62-2 108-52 181-242 347-307 432-348 452-50 24-90 25-130 5-27-14-163-110-971-685-198-141-470-334-605-430-135-95-344-244-465-330s-362-257-535-380-361-256-417-297l-102-73-298 181c-164 100-370 226-458 279-88 54-243 148-345 210s-342 208-535 325c-192 117-674 409-1070 650s-794 483-885 538-248 151-350 212c-102 62-405 247-675 411-661 402-612 374-665 374-26 0-57-8-75-19z" />
</svg>