<?xml version="1.0" standalone="no"?>
<!DOCTYPE svg PUBLIC "-//W3C//DTD SVG 20010904//EN"
 "http://www.w3.org/TR/2001/REC-SVG-20010904/DTD/svg10.dtd">
<svg version="1.0" xmlns="http://www.w3.org/2000/svg"
 width="1080.000000pt" height="1080.000000pt" viewBox="0 0 1080.000000 1080.000000"
 preserveAspectRatio="xMidYMid meet">
<metadata>
Created by potrace 1.16, written by Peter Selinger 2001-2019
</metadata>
<g transform="translate(0.000000,1080.000000) scale(0.100000,-0.100000)"
fill="#000000" stroke="none">
<path d="M0 5400 l0 -5400 5400 0 5400 0 0 5400 0 5400 -5400 0 -5400 0 0
-5400z m1732 4016 c29 -20 149 -123 528 -456 36 -32 160 -140 275 -241 116
-102 397 -349 625 -549 544 -478 915 -803 1267 -1112 159 -139 342 -300 408
-358 424 -375 775 -680 781 -680 11 0 76 62 379 355 154 149 541 522 860 830
319 307 652 629 740 715 541 528 1272 1228 1303 1247 52 32 107 30 163 -6 25
-15 55 -40 66 -54 11 -14 96 -104 188 -199 181 -187 211 -231 200 -297 -9 -54
-23 -70 -210 -251 -93 -90 -235 -227 -315 -305 -80 -78 -280 -271 -445 -430
-308 -297 -439 -423 -725 -701 -91 -88 -424 -409 -740 -714 -316 -305 -626
-604 -689 -665 l-113 -111 73 -66 c41 -35 333 -292 649 -569 964 -846 1234
-1082 1265 -1110 17 -15 149 -131 295 -259 333 -292 391 -343 460 -405 31 -27
72 -64 91 -80 19 -17 123 -109 233 -205 109 -96 218 -191 242 -210 57 -46 98
-125 89 -173 -4 -19 -15 -48 -25 -63 -26 -43 -389 -453 -416 -471 -35 -23 -95
-27 -136 -10 -29 12 -244 195 -561 476 -18 15 -72 64 -122 107 -49 43 -95 83
-101 89 -6 5 -39 35 -74 65 -35 30 -84 73 -109 96 -25 22 -89 78 -141 124 -52
45 -124 108 -160 140 -36 31 -162 142 -280 246 -119 104 -397 349 -620 544
-1019 896 -1276 1120 -1284 1120 -4 0 -76 -66 -160 -148 -83 -81 -212 -206
-286 -277 -74 -72 -209 -203 -300 -290 -91 -88 -226 -218 -300 -290 -74 -71
-196 -189 -270 -260 -74 -72 -202 -196 -285 -275 -82 -80 -217 -210 -300 -290
-317 -307 -451 -437 -476 -460 -15 -14 -322 -311 -684 -660 -361 -349 -670
-643 -688 -652 -41 -23 -99 -23 -145 1 -20 10 -66 50 -101 87 -35 38 -128 135
-207 215 -161 165 -177 193 -153 276 11 40 79 109 748 755 405 392 797 771
871 843 74 72 272 264 440 425 168 162 368 355 445 429 77 75 268 260 425 411
157 151 353 340 435 420 83 80 192 186 243 235 l93 90 -93 81 c-90 77 -264
230 -1333 1168 -593 521 -903 792 -1220 1071 -132 116 -391 343 -575 505 -184
161 -399 350 -477 418 -84 74 -147 137 -155 156 -27 64 -10 138 44 196 13 14
99 112 193 218 93 107 180 200 194 207 42 23 123 19 163 -9z"/>
</g>
</svg>
