<svg viewBox="0 0 1080 1080" width="32" height="32" preserveAspectRatio="xMidYMid meet" version="1.0" xmlns="http://www.w3.org/2000/svg" xmlns:xlink="http://www.w3.org/1999/xlink">
    <metadata>
        Created by potrace 1.16, written by Peter Selinger 2001-2019
    </metadata>
    <path fill="currentColor" transform="matrix(0.1, 0, 0, -0.1, 0, 1080)" d="M0 5400V0h5400 5400v5400 5400H5400 0zM1868 9458c22-13 319-288 659-612 841-802 982-936 1093-1041 52-49 147-139 210-200s162-155 220-210c270-257 341-325 425-405 50-47 227-216 395-375s350-332 405-385 128-123 163-155l63-59 1657 1656c911 911 1668 1661 1681 1668 38 19 115 15 153-8 18-11 126-114 239-229 175-176 209-215 218-251 27-98 161 46-1660-1777L6131 5415l152-144c84-79 193-183 242-231 50-47 185-176 300-285 116-109 253-240 305-290s142-136 200-190c58-55 150-143 205-196 55-52 201-192 325-309 124-118 308-293 410-390s331-315 510-485c581-553 732-699 746-727 21-41 17-107-9-150-12-20-67-83-121-140-318-331-327-338-395-338-64 0-71 6-361 284-63 61-198 190-300 286s-237 225-300 286c-63 60-203 193-310 295-207 196-722 686-1030 980-102 97-199 189-216 205-18 16-240 227-493 469-254 242-467 442-473 444s-803-789-1772-1757c-968-968-1772-1765-1785-1772-34-17-101-16-142 4-20 9-131 112-246 229-183 184-213 218-223 257-26 96-155-42 1773 1887 1530 1531 1760 1764 1747 1777-32 29-1706 1620-1890 1795-107 102-244 233-305 290-60 58-155 148-210 201s-235 224-400 380-349 332-410 390c-60 59-162 155-225 215-142 134-170 173-170 232 0 72 0 72 254 337 223 233 261 255 354 204z" />
</svg>