<?xml version="1.0" standalone="no"?>
<!DOCTYPE svg PUBLIC "-//W3C//DTD SVG 20010904//EN"
 "http://www.w3.org/TR/2001/REC-SVG-20010904/DTD/svg10.dtd">
<svg version="1.0" xmlns="http://www.w3.org/2000/svg"
 width="1080.000000pt" height="1080.000000pt" viewBox="0 0 1080.000000 1080.000000"
 preserveAspectRatio="xMidYMid meet">
<metadata>
Created by potrace 1.16, written by Peter Selinger 2001-2019
</metadata>
<g transform="translate(0.000000,1080.000000) scale(0.100000,-0.100000)"
fill="#000000" stroke="none">
<path d="M0 5400 l0 -5400 5400 0 5400 0 0 5400 0 5400 -5400 0 -5400 0 0
-5400z m1210 3718 c41 -25 359 -217 705 -428 347 -211 709 -432 805 -490 304
-185 1578 -959 1745 -1060 88 -53 243 -148 345 -210 275 -168 679 -413 815
-495 157 -94 419 -253 584 -354 72 -45 135 -81 140 -81 9 0 465 322 1531 1080
250 178 507 360 570 405 63 45 310 220 548 389 239 169 447 312 464 318 39 14
100 5 136 -20 23 -17 201 -258 360 -488 33 -48 38 -103 14 -156 -22 -50 42 -2
-707 -534 -192 -136 -559 -397 -815 -579 -256 -182 -648 -460 -872 -619 -225
-159 -408 -292 -408 -295 0 -3 447 -277 993 -608 545 -331 1048 -637 1117
-679 69 -42 272 -166 453 -275 180 -109 345 -211 368 -226 46 -30 79 -87 79
-135 0 -41 -10 -60 -183 -344 -158 -260 -180 -284 -268 -284 -51 0 -78 16
-1069 620 -228 139 -833 506 -1343 816 l-928 564 -307 -218 c-1339 -951 -2194
-1559 -2457 -1745 -294 -209 -948 -674 -1430 -1017 -121 -86 -281 -200 -355
-252 -74 -52 -205 -145 -290 -206 -85 -62 -169 -119 -187 -127 -63 -30 -142
-15 -190 37 -51 54 -344 476 -354 510 -17 53 -4 104 39 149 20 21 210 160 422
310 387 274 759 537 1295 919 160 114 470 334 690 490 220 156 445 316 500
355 130 93 1325 943 1667 1185 81 57 146 105 145 105 -1 1 -117 71 -257 155
-140 85 -543 329 -895 543 -352 215 -986 600 -1410 857 -423 257 -957 581
-1185 720 -228 139 -575 350 -770 468 -195 118 -370 229 -388 246 -38 36 -57
90 -48 138 3 19 47 101 97 184 246 405 245 403 329 414 55 7 65 4 160 -52z"/>
</g>
</svg>
