<svg viewBox="0 0 1080 1080" width="32" height="32" preserveAspectRatio="xMidYMid meet" version="1.0" xmlns="http://www.w3.org/2000/svg" xmlns:xlink="http://www.w3.org/1999/xlink">
    <metadata>
        Created by potrace 1.16, written by Peter Selinger 2001-2019
    </metadata>
    <path fill="currentColor" transform="matrix(0.1, 0, 0, -0.1, 0, 1080)" d="M1814 9466c-37-16-454-436-471-474-17-37-16-97 1-130 8-15 234-245 503-512 623-619 2424-2403 2738-2713l240-236-1732-1733C1571 2144 1360 1930 1351 1895c-21-82-10-99 227-337 119-120 230-224 248-233 40-19 85-19 127-1 19 8 718 699 1760 1741l1728 1727 552-548c304-302 786-781 1072-1064 286-284 761-754 1055-1046 766-760 736-732 802-734 66-1 102 28 314 247 115 119 214 225 221 237 17 29 16 101-1 134-8 15-225 236-483 492-657 654-2402 2381-2680 2655-128 125-233 232-233 237s759 769 1688 1698c1815 1818 1721 1719 1702 1803-11 52-29 73-252 294-219 217-243 233-325 219-34-7-200-169-1735-1703L5442 6017l-27 21c-23 18-1028 1013-2665 2637-686 681-786 778-818 792-35 16-80 15-118-1z" />
</svg>