<svg viewBox="0 0 1080 1080" width="32" height="32" preserveAspectRatio="xMidYMid meet" version="1.0" xmlns="http://www.w3.org/2000/svg" xmlns:xlink="http://www.w3.org/1999/xlink">
    <metadata>
        Created by potrace 1.16, written by Peter Selinger 2001-2019
    </metadata>
    <path fill="currentColor" transform="matrix(0.1, 0, 0, -0.1, 0, 1080)" d="M0 5400V0h5400 5400v5400 5400H5400 0zM1524 9313c30-21 127-94 216-163s352-270 584-447c231-178 480-368 551-423 72-55 432-331 800-612 1044-798 1435-1098 1500-1148 33-25 107-82 165-126 58-45 195-149 304-233 110-83 205-150 212-147 13 5 103 83 1319 1146 369 322 828 723 1020 891 193 168 465 406 605 529 140 122 269 231 285 241 38 24 110 25 152 2 35-20 419-454 434-491 13-32 11-106-2-136-10-20-488-448-853-762-39-33-417-363-841-734-423-370-907-792-1075-938s-313-273-324-282c-20-19-17-21 429-362 240-183 741-566 1195-914 421-323 556-426 775-594 770-589 871-668 888-698 28-48 26-111-6-164-50-82-352-462-386-485-39-26-111-31-151-10-23 12-78 54-386 292-77 59-1123 859-1557 1191-73 55-262 200-422 322-159 122-351 269-425 325-74 57-245 188-380 292-135 103-250 190-257 192-7 3-151-116-320-264-1095-957-1744-1523-1784-1558-26-22-96-83-155-135-60-52-323-282-584-509-768-670-1031-900-1100-961-238-210-270-230-343-216-19 4-46 15-60 26-32 25-370 409-403 457-28 42-33 117-9 163 8 16 65 73 127 127s219 191 348 304c790 688 1043 910 1109 968 41 36 131 115 200 175 136 118 326 284 1061 926 261 228 599 522 750 654s311 271 355 310c44 38 84 73 88 76 5 4-202 168-460 365-257 197-504 386-548 420-97 74-598 458-1090 834-414 316-784 600-1111 851-126 96-294 225-374 286-435 332-598 458-626 484-42 39-59 105-41 157 11 33 231 332 349 474 75 91 153 101 252 32z" />
</svg>